HIERARCHY
ROOT Hips
{
	OFFSET 0.00 0.00 0.00
	CHANNELS 6 Xposition Yposition Zposition Xrotation Yrotation Zrotation
	JOINT Spine
	{
		OFFSET 0.00000 2.10617 3.15926
		CHANNELS 3 Xrotation Yrotation Zrotation
		JOINT Spine1
		{
			OFFSET 0.00000 0.73147 4.14835
			CHANNELS 3 Xrotation Yrotation Zrotation
			JOINT Spine2
			{
				OFFSET 0.00000 0.36713 4.19631
				CHANNELS 3 Xrotation Yrotation Zrotation
				JOINT Spine3
				{
					OFFSET 0.00000 0.00000 4.21234
					CHANNELS 3 Xrotation Yrotation Zrotation
					JOINT Neck
					{
						OFFSET 0.00000 -1.57962 11.05740
						CHANNELS 3 Xrotation Yrotation Zrotation
						JOINT Head
						{
							OFFSET 0.00000 -1.00576 5.70398
							CHANNELS 3 Xrotation Yrotation Zrotation
							End Site
							{
								OFFSET 0.00000 0.00001 6.81873
							}
						}
					}
					JOINT RightShoulder
					{
						OFFSET -1.28113 -2.13521 6.91810
						CHANNELS 3 Xrotation Yrotation Zrotation
						JOINT RightArm
						{
							OFFSET -6.36294 0.00000 0.00000
							CHANNELS 3 Xrotation Yrotation Zrotation
							JOINT RightForeArm
							{
								OFFSET -10.12221 0.00000 0.00000
								CHANNELS 3 Xrotation Yrotation Zrotation
								JOINT RightHand
								{
									OFFSET -10.76713 0.00000 0.00000
									CHANNELS 3 Xrotation Yrotation Zrotation
									JOINT RightHandEnd
									{
										OFFSET -2.78915 0.00000 0.00000
										CHANNELS 3 Xrotation Yrotation Zrotation
										End Site
										{
											OFFSET -2.78915 0.00000 0.00000
										}
									}
									JOINT RightHandThumb1
									{
										OFFSET -1.11566 -1.85944 -0.74377
										CHANNELS 3 Yrotation Xrotation Zrotation
										End Site
										{
											OFFSET -2.69412 -0.72189 0.00000
										}
									}
								}
							}
						}
					}
					JOINT LeftShoulder
					{
						OFFSET 1.28113 -2.13521 6.91810
						CHANNELS 3 Xrotation Yrotation Zrotation
						JOINT LeftArm
						{
							OFFSET 6.36294 0.00000 0.00000
							CHANNELS 3 Xrotation Yrotation Zrotation
							JOINT LeftForeArm
							{
								OFFSET 10.12221 0.00000 0.00000
								CHANNELS 3 Xrotation Yrotation Zrotation
								JOINT LeftHand
								{
									OFFSET 10.76713 0.00000 0.00000
									CHANNELS 3 Xrotation Yrotation Zrotation
									JOINT LeftHandEnd
									{
										OFFSET 2.78915 0.00000 0.00000
										CHANNELS 3 Xrotation Yrotation Zrotation
										End Site
										{
											OFFSET 2.78915 0.00000 0.00000
										}
									}
									JOINT LeftHandThumb1
									{
										OFFSET 1.11566 -1.85944 -0.74377
										CHANNELS 3 Yrotation Xrotation Zrotation
										End Site
										{
											OFFSET 2.69412 -0.72189 0.00000
										}
									}
								}
							}
						}
					}
				}
			}
		}
	}
	JOINT RightUpLeg
	{
		OFFSET -3.80068 0.00000 -1.11031
		CHANNELS 3 Xrotation Yrotation Zrotation
		JOINT RightLeg
		{
			OFFSET 0.00001 0.00000 -17.00167
			CHANNELS 3 Xrotation Yrotation Zrotation
			JOINT RightFoot
			{
				OFFSET 0.00001 0.00000 -17.96841
				CHANNELS 3 Xrotation Yrotation Zrotation
				JOINT RightToeBase
				{
					OFFSET 0.00000 -5.07501 -1.84715
					CHANNELS 3 Xrotation Yrotation Zrotation
					End Site
					{
						OFFSET 0.00000 -3.07471 -0.00000
					}
				}
			}
		}
	}
	JOINT LeftUpLeg
	{
		OFFSET 3.80068 0.00000 -1.11031
		CHANNELS 3 Xrotation Yrotation Zrotation
		JOINT LeftLeg
		{
			OFFSET 0.00001 0.00000 -17.00167
			CHANNELS 3 Xrotation Yrotation Zrotation
			JOINT LeftFoot
			{
				OFFSET 0.00001 0.00000 -17.96841
				CHANNELS 3 Xrotation Yrotation Zrotation
				JOINT LeftToeBase
				{
					OFFSET 0.00000 -5.07501 -1.84715
					CHANNELS 3 Xrotation Yrotation Zrotation
					End Site
					{
						OFFSET 0.00000 -3.07471 -0.00000
					}
				}
			}
		}
	}
}
MOTION
Frames: 12
Frame Time: 0.008342
 12.3596 11.5893 38.8313 43.8217 -0.7874 -53.8202 4.9022 6.0209 1.9755 3.9890 4.1676 0.8230 7.3749 -3.9623 16.2449 0.7791 -3.2832 5.8085 -18.3206 1.2216 13.4655 2.9996 -0.0163 1.6185 9.7038 11.4545 7.0377 42.3874 -54.9236 28.3431 -0.0001 0.0001 102.7036 -21.0193 0.6088 -12.5952 -0.0000 -0.0000 -0.0000 -0.0000 -0.0000 -0.0000 7.0692 15.3894 -24.4242 55.1917 28.5559 -49.8474 -0.0001 -0.0001 -84.7638 -46.8763 5.6930 0.3960 -0.0000 0.0000 -0.0000 -0.0000 0.0000 -0.0000 15.2612 21.5240 -23.4543 17.9558 0.0000 0.0000 -6.6311 -0.9922 3.7763 -19.7489 0.0000 -0.0000 -53.7613 -36.0394 11.4431 24.7847 0.0000 0.0000 -20.6736 28.4813 24.7027 9.5517 0.0000 0.0000
 12.3817 11.5878 38.8272 43.7576 -0.9209 -53.8099 4.8997 6.1055 1.9608 4.0035 4.2146 0.8310 7.4469 -3.9685 16.2586 0.7923 -3.2850 5.8119 -18.2236 1.3849 13.6576 2.9308 0.0192 1.6340 9.8329 11.5920 6.7343 42.9180 -54.9754 28.5292 -0.0001 0.0001 102.9648 -20.6286 0.7374 -12.3592 0.0000 -0.0000 0.0000 -0.0000 0.0000 0.0000 7.1060 15.4438 -24.5000 55.2771 28.3430 -49.8436 -0.0001 -0.0001 -84.9358 -46.3071 5.8203 0.4980 0.0000 0.0000 -0.0000 -0.0000 0.0000 -0.0000 15.1635 21.5757 -23.3670 18.0154 0.0000 0.0000 -6.6577 -1.0216 3.7804 -19.7162 0.0000 -0.0000 -53.7351 -35.9173 11.6138 24.7409 0.0000 0.0000 -20.6370 28.4774 24.6087 9.5818 0.0000 0.0000
 12.4027 11.5876 38.8233 43.7055 -1.0127 -53.8193 4.9340 6.1607 1.9742 4.0015 4.2504 0.8252 7.5207 -3.9795 16.2923 0.8047 -3.2960 5.8270 -18.1222 1.5643 13.8638 2.8513 0.0431 1.6396 9.9843 11.7579 6.4109 43.4181 -55.0448 28.7415 -0.0001 0.0001 103.1989 -20.2649 0.8681 -12.1230 -0.0000 -0.0000 0.0000 -0.0000 0.0000 0.0000 7.1335 15.5112 -24.5833 55.3511 28.1398 -49.8446 -0.0001 -0.0001 -85.1015 -45.7563 5.9494 0.6150 -0.0000 0.0000 0.0000 0.0000 -0.0000 0.0000 15.0628 21.5874 -23.2517 18.0658 0.0000 0.0000 -6.6767 -1.0628 3.7943 -19.6800 0.0000 -0.0000 -53.7101 -35.8405 11.7511 24.7234 0.0000 0.0000 -20.6388 28.4959 24.5211 9.6233 0.0000 0.0000
 12.4255 11.5863 38.8176 43.6512 -1.1132 -53.8095 4.9508 6.2223 1.9613 4.0160 4.2819 0.8338 7.5899 -4.0080 16.3350 0.8161 -3.3029 5.8401 -18.0215 1.7406 14.0774 2.7739 0.0630 1.6471 10.1274 11.9314 6.1067 43.8789 -55.1391 28.9232 -0.0001 0.0001 103.4191 -19.9365 0.9856 -11.8943 0.0000 0.0000 -0.0000 0.0000 -0.0000 0.0000 7.1622 15.5868 -24.6672 55.3990 27.9373 -49.8449 -0.0001 -0.0001 -85.2608 -45.2204 6.0763 0.7475 0.0000 0.0000 -0.0000 0.0000 -0.0000 0.0000 14.9545 21.6015 -23.1953 18.1033 0.0000 0.0000 -6.6889 -1.1190 3.8411 -19.6424 0.0000 -0.0000 -53.7050 -35.7373 11.8633 24.7193 0.0000 0.0000 -20.6771 28.5113 24.4468 9.6891 0.0000 0.0000
 12.4492 11.5854 38.8117 43.5980 -1.1955 -53.8190 4.9917 6.2739 1.9662 4.0140 4.3080 0.8283 7.6638 -4.0396 16.3986 0.8253 -3.3152 5.8611 -17.9220 1.9183 14.2954 2.6937 0.0753 1.6575 10.2887 12.1272 5.7982 44.3058 -55.2459 29.1240 -0.0001 0.0001 103.6136 -19.6476 1.1049 -11.6687 0.0000 0.0000 -0.0000 0.0000 -0.0000 -0.0000 7.1770 15.6725 -24.7525 55.4393 27.7433 -49.8479 -0.0001 -0.0001 -85.4124 -44.6921 6.2088 0.8942 0.0000 -0.0000 0.0000 0.0000 -0.0000 0.0000 14.8293 21.6090 -23.1510 18.1434 0.0000 0.0000 -6.6967 -1.1777 3.9114 -19.6049 0.0000 -0.0000 -53.6936 -35.6531 11.9534 24.7293 0.0000 0.0000 -20.7577 28.5233 24.3891 9.7861 0.0000 0.0000
 12.4737 11.5846 38.8056 43.5431 -1.2669 -53.8403 5.0283 6.3289 1.9730 4.0404 4.3214 0.8283 7.7152 -4.0724 16.4647 0.8333 -3.3332 5.8870 -17.8203 2.0855 14.5168 2.6119 0.0853 1.6748 10.4277 12.3278 5.5340 44.6971 -55.3813 29.2728 -0.0001 0.0001 103.8037 -19.4057 1.2057 -11.4535 0.0000 0.0000 -0.0000 -0.0000 -0.0000 0.0000 7.1763 15.7647 -24.8366 55.4773 27.5649 -49.8502 -0.0001 -0.0001 -85.5601 -44.1670 6.3381 1.0572 0.0000 -0.0000 -0.0000 0.0000 -0.0000 0.0000 14.6910 21.6137 -23.1297 18.1819 0.0000 0.0000 -6.7004 -1.2323 3.9954 -19.5679 0.0000 -0.0000 -53.6767 -35.5759 12.0262 24.7483 0.0000 0.0000 -20.8718 28.5205 24.3398 9.9193 0.0000 0.0000
 12.4969 11.5844 38.7995 43.4940 -1.3060 -53.8616 5.0865 6.3720 1.9679 4.0692 4.3250 0.8316 7.7572 -4.1091 16.5372 0.8400 -3.3565 5.9243 -17.7163 2.2406 14.7324 2.5237 0.0926 1.6990 10.5790 12.5387 5.2766 45.0522 -55.5242 29.4235 -0.0001 0.0001 103.9787 -19.2119 1.2996 -11.2536 -0.0000 0.0000 -0.0000 0.0000 -0.0000 -0.0000 7.1887 15.8382 -24.9075 55.4885 27.3723 -49.8860 -0.0001 -0.0001 -85.6856 -43.6489 6.4583 1.2160 -0.0000 0.0000 0.0000 0.0000 -0.0000 -0.0000 14.5699 21.5846 -23.1341 18.1968 0.0000 0.0000 -6.6928 -1.2755 4.0752 -19.5345 0.0000 -0.0000 -53.6585 -35.5118 12.0616 24.7766 0.0000 0.0000 -21.0064 28.4992 24.2841 10.0902 0.0000 0.0000
 12.5228 11.5834 38.7930 43.4357 -1.3595 -53.8997 5.1358 6.4277 1.9631 4.0963 4.3306 0.8316 7.8004 -4.1460 16.6272 0.8454 -3.3794 5.9589 -17.6189 2.3780 14.9424 2.4434 0.0990 1.7342 10.7242 12.7545 5.0506 45.3712 -55.6848 29.5539 -0.0001 0.0001 104.1405 -19.0627 1.3877 -11.0638 0.0000 0.0000 -0.0000 0.0000 -0.0000 0.0000 7.1601 15.9224 -24.9903 55.5273 27.2200 -49.9045 -0.0001 -0.0001 -85.8149 -43.1157 6.5776 1.3870 0.0000 0.0000 0.0000 -0.0000 0.0000 -0.0000 14.4131 21.5840 -23.1753 18.2274 0.0000 0.0000 -6.6887 -1.3068 4.1728 -19.5041 0.0000 -0.0000 -53.6305 -35.4367 12.1044 24.8036 0.0000 0.0000 -21.1570 28.4422 24.2294 10.2965 0.0000 0.0000
 12.5460 11.5834 38.7876 43.3870 -1.3695 -53.9504 5.2101 6.4651 1.9605 4.1279 4.3273 0.8332 7.8331 -4.1819 16.7200 0.8472 -3.4078 5.9982 -17.5176 2.4925 15.1421 2.3551 0.1074 1.7799 10.8758 12.9705 4.8443 45.6524 -55.8494 29.6736 -0.0001 0.0001 104.2953 -18.9619 1.4672 -10.8947 -0.0000 -0.0000 0.0000 -0.0000 -0.0000 0.0000 7.1468 15.9816 -25.0421 55.5435 27.0366 -49.9675 -0.0001 -0.0001 -85.9190 -42.5964 6.6719 1.5399 0.0000 0.0000 -0.0000 0.0000 0.0000 0.0000 14.2729 21.5375 -23.2040 18.2393 0.0000 0.0000 -6.6777 -1.3190 4.2364 -19.4770 0.0000 -0.0000 -53.5930 -35.3962 12.1236 24.8383 0.0000 0.0000 -21.3030 28.3671 24.1426 10.5326 0.0000 0.0000
 12.5712 11.5822 38.7823 43.3295 -1.3958 -54.0138 5.2692 6.5167 1.9518 4.1610 4.3265 0.8343 7.8659 -4.2140 16.8222 0.8496 -3.4365 6.0409 -17.4245 2.5876 15.3298 2.2779 0.1160 1.8353 11.0198 13.1847 4.6646 45.9063 -56.0263 29.7803 -0.0001 0.0001 104.4388 -18.8980 1.5493 -10.7370 -0.0000 0.0000 -0.0000 -0.0000 -0.0000 -0.0000 7.1111 16.0452 -25.1045 55.5737 26.8758 -50.0146 -0.0001 -0.0001 -86.0262 -42.0762 6.7558 1.6876 0.0000 -0.0000 -0.0000 0.0000 -0.0000 -0.0000 14.1021 21.5166 -23.2665 18.2647 0.0000 0.0000 -6.6723 -1.3195 4.3084 -19.4532 0.0000 -0.0000 -53.5448 -35.3421 12.1569 24.8665 0.0000 0.0000 -21.4420 28.2599 24.0418 10.7912 0.0000 0.0000
 12.5939 11.5815 38.7786 43.2788 -1.3868 -54.0924 5.3485 6.5556 1.9467 4.1957 4.3169 0.8370 7.8895 -4.2378 16.9261 0.8498 -3.4691 6.0818 -17.3327 2.6536 15.5021 2.2009 0.1287 1.9053 11.1658 13.3847 4.5080 46.1209 -56.1986 29.8682 -0.0001 0.0001 104.5795 -18.8737 1.6288 -10.5983 0.0000 0.0000 0.0000 0.0000 -0.0000 -0.0000 7.0771 16.0852 -25.1326 55.6000 26.6939 -50.1011 -0.0001 -0.0001 -86.1107 -41.5731 6.8188 1.8132 0.0000 -0.0000 -0.0000 0.0000 -0.0000 -0.0000 13.9425 21.4594 -23.3146 18.2790 0.0000 0.0000 -6.6652 -1.3071 4.3519 -19.4308 0.0000 -0.0000 -53.4825 -35.3216 12.1863 24.8979 0.0000 0.0000 -21.5566 28.1449 23.8969 11.0617 0.0000 0.0000
 12.6165 11.5797 38.7756 43.2249 -1.3813 -54.1748 5.4188 6.5977 1.9349 4.2282 4.3145 0.8381 7.9175 -4.2607 17.0335 0.8507 -3.5048 6.1305 -17.2481 2.7090 15.6592 2.1309 0.1381 1.9788 11.3100 13.5817 4.3550 46.3229 -56.3723 29.9695 -0.0001 0.0001 104.7063 -18.8821 1.7101 -10.4682 -0.0000 0.0000 -0.0000 -0.0000 0.0000 0.0000 7.0304 16.1278 -25.1714 55.6367 26.5238 -50.1736 -0.0001 -0.0001 -86.1988 -41.0898 6.8682 1.9212 0.0000 -0.0000 -0.0000 -0.0000 -0.0000 0.0000 13.7716 21.4055 -23.3808 18.2977 0.0000 0.0000 -6.6634 -1.2924 4.3903 -19.4096 0.0000 -0.0000 -53.4131 -35.2976 12.2300 24.9247 0.0000 0.0000 -21.6441 28.0219 23.7196 11.3331 0.0000 0.0000
